# Blender 4.0.2
# www.blender.org
mtllib airlock_1.mtl
o cube
v 0.312500 2.062500 0.234375
v 0.312500 2.062500 -0.203125
v 0.312500 0.000000 0.234375
v 0.312500 -0.000000 -0.203125
v -1.000000 2.062500 -0.203125
v -1.000000 2.062500 0.234375
v -1.000000 -0.000000 -0.203125
v -1.000000 0.000000 0.234375
vn -0.0000 -0.0000 -1.0000
vn 1.0000 -0.0000 -0.0000
vn -0.0000 -0.0000 1.0000
vn -1.0000 -0.0000 -0.0000
vn -0.0000 1.0000 -0.0000
vn -0.0000 -1.0000 -0.0000
vt 0.054688 0.687500
vt 0.218750 0.687500
vt 0.218750 0.945312
vt 0.054688 0.945312
vt 0.000000 0.687500
vt 0.000000 0.945312
vt 0.273438 0.687500
vt 0.437500 0.687500
vt 0.437500 0.945312
vt 0.273438 0.945312
vt 0.218750 1.000000
vt 0.054688 1.000000
vt 0.382812 0.945312
vt 0.382812 1.000000
s 0
usemtl m_500e3bee-8158-e2f2-80cb-ea2b9d75607e
f 4/1/1 7/2/1 5/3/1 2/4/1
f 3/5/2 4/1/2 2/4/2 1/6/2
f 8/7/3 3/8/3 1/9/3 6/10/3
f 7/2/4 8/7/4 6/10/4 5/3/4
f 6/11/5 1/12/5 2/4/5 5/3/5
f 7/13/6 4/3/6 3/11/6 8/14/6
o cube.001
v 0.437500 1.625000 0.240625
v 0.437500 1.625000 -0.212500
v 0.437500 0.359375 0.240625
v 0.437500 0.359375 -0.212500
v 0.312500 1.625000 -0.212500
v 0.312500 1.625000 0.240625
v 0.312500 0.359375 -0.212500
v 0.312500 0.359375 0.240625
vn -0.0000 -0.0000 -1.0000
vn 1.0000 -0.0000 -0.0000
vn -0.0000 -0.0000 1.0000
vn -1.0000 -0.0000 -0.0000
vn -0.0000 1.0000 -0.0000
vn -0.0000 -1.0000 -0.0000
vt 0.054688 0.476562
vt 0.070312 0.476562
vt 0.070312 0.632812
vt 0.054688 0.632812
vt 0.000000 0.476562
vt 0.000000 0.632812
vt 0.125000 0.476562
vt 0.140625 0.476562
vt 0.140625 0.632812
vt 0.125000 0.632812
vt 0.070312 0.687500
vt 0.054688 0.687500
vt 0.085938 0.632812
vt 0.085938 0.687500
s 0
usemtl m_500e3bee-8158-e2f2-80cb-ea2b9d75607e
f 12/15/7 15/16/7 13/17/7 10/18/7
f 11/19/8 12/15/8 10/18/8 9/20/8
f 16/21/9 11/22/9 9/23/9 14/24/9
f 15/16/10 16/21/10 14/24/10 13/17/10
f 14/25/11 9/26/11 10/18/11 13/17/11
f 15/27/12 12/17/12 11/25/12 16/28/12
o cube.002
v 0.687500 1.437500 0.006250
v 0.687500 1.437500 0.006250
v 0.687500 0.546875 0.006250
v 0.687500 0.546875 0.006250
v 0.437500 1.437500 0.006250
v 0.437500 1.437500 0.006250
v 0.437500 0.546875 0.006250
v 0.437500 0.546875 0.006250
vn -0.0000 -0.0000 -1.0000
vn 1.0000 -0.0000 -0.0000
vn -0.0000 -0.0000 1.0000
vn -1.0000 -0.0000 -0.0000
vn -0.0000 1.0000 -0.0000
vn -0.0000 -1.0000 -0.0000
vt 0.140625 0.578125
vt 0.171875 0.578125
vt 0.171875 0.687500
vt 0.140625 0.687500
vt 0.203125 0.578125
vt 0.203125 0.687500
s 0
usemtl m_500e3bee-8158-e2f2-80cb-ea2b9d75607e
f 20/29/13 23/30/13 21/31/13 18/32/13
f 19/29/13 20/29/14 18/32/13 17/32/14
f 24/30/15 19/33/15 17/34/15 22/31/15
f 23/30/13 24/30/16 22/31/13 21/31/16
f 22/31/17 17/32/13 18/32/17 21/31/13
f 23/34/18 20/31/13 19/31/18 24/34/13
