# Made in Blockbench 4.9.4
mtllib PlayerHands.mtl

o Left
v 0.13324091566297686 0.24771636951256193 -0.328125000000007
v 0.3205624572095751 0.23953773438156167 -0.32812500000000705
v 0.3205624572095752 0.23953773438155723 0.48437499999999295
v 0.13324091566297697 0.2477163695125577 0.484374999999993
v 0.14414576250431066 0.4974784249080264 -0.3281250000000056
v 0.14414576250431077 0.4974784249080222 0.4843749999999944
v 0.33146730405090896 0.48929978977702615 -0.32812500000000566
v 0.3314673040509091 0.4892997897770217 0.48437499999999434
vt 0.390625 0.5
vt 0.4140625 0.5
vt 0.4140625 0.6015625
vt 0.390625 0.6015625
vt 0.2109375 0.5390625
vt 0.2421875 0.5390625
vt 0.2421875 0.640625
vt 0.2109375 0.640625
vt 0 0.484375
vt 0.0234375 0.484375
vt 0.0234375 0.5859375
vt 0 0.5859375
vt 0.390625 0.8984375
vt 0.421875 0.8984375
vt 0.421875 1
vt 0.390625 1
vt 0.1640625 0.5
vt 0.1875 0.5
vt 0.1875 0.53125
vt 0.1640625 0.53125
vt 0.1953125 0.5
vt 0.21875 0.5
vt 0.21875 0.53125
vt 0.1953125 0.53125
vn -0.04361938736533532 -0.9990482215818579 -5.318701693623845e-15
vn -0.9990482215818579 0.04361938736533531 3.5376585948335166e-16
vn 0.04361938736533532 0.9990482215818579 5.318701693623845e-15
vn 0.9990482215818579 -0.04361938736533531 -3.5376585948335166e-16
vn 1.218089638931004e-16 -5.561721882361748e-15 1
vn -1.218089638931004e-16 5.561721882361748e-15 -1
usemtl m_fbde0b9f-08b6-a612-7b95-ea7e10191f71
f 1/1/1 2/2/1 3/3/1 4/4/1
f 5/5/2 1/6/2 4/7/2 6/8/2
f 7/9/3 5/10/3 6/11/3 8/12/3
f 2/13/4 7/14/4 8/15/4 3/16/4
f 8/17/5 6/18/5 4/19/5 3/20/5
f 2/21/6 1/22/6 5/23/6 7/24/6